<svg data-v-423bf9ae="" xmlns="http://www.w3.org/2000/svg" viewBox="0 0 1020 90" class="iconLeft"><!----><!----><!----><g data-v-423bf9ae="" id="0ee6e5b9-e046-4f63-bc86-4a3dd2e12d44" fill="white" transform="matrix(4.8979591836734695,0,0,4.8979591836734695,136.6536429268973,15)"><path d="M10.50 12.25L0 12.25L0 10.50L8.75 10.50L8.75 8.75L1.75 8.75L1.75 7L0 7L0 5.25L1.75 5.25L1.75 3.50L10.50 3.50L10.50 5.25L3.50 5.25L3.50 7L10.50 7L10.50 8.75L12.25 8.75L12.25 10.50L10.50 10.50L10.50 12.25ZM24.50 12.25L15.75 12.25L15.75 10.50L14 10.50L14 5.25L15.75 5.25L15.75 3.50L24.50 3.50L24.50 5.25L26.25 5.25L26.25 10.50L24.50 10.50L24.50 12.25ZM17.50 5.25L17.50 10.50L22.75 10.50L22.75 5.25L17.50 5.25ZM40.25 12.25L29.75 12.25L29.75 10.50L33.25 10.50L33.25 1.75L31.50 1.75L31.50 0L36.75 0L36.75 10.50L40.25 10.50L40.25 12.25ZM54.25 12.25L43.75 12.25L43.75 10.50L42 10.50L42 8.75L43.75 8.75L43.75 7L50.75 7L50.75 5.25L43.75 5.25L43.75 3.50L52.50 3.50L52.50 5.25L54.25 5.25L54.25 12.25ZM45.50 8.75L45.50 10.50L50.75 10.50L50.75 8.75L45.50 8.75ZM59.50 12.25L56 12.25L56 3.50L66.50 3.50L66.50 5.25L68.25 5.25L68.25 12.25L64.75 12.25L64.75 5.25L59.50 5.25L59.50 12.25ZM82.25 12.25L71.75 12.25L71.75 10.50L70 10.50L70 8.75L71.75 8.75L71.75 7L78.75 7L78.75 5.25L71.75 5.25L71.75 3.50L80.50 3.50L80.50 5.25L82.25 5.25L82.25 12.25ZM73.50 8.75L73.50 10.50L78.75 10.50L78.75 8.75L73.50 8.75ZM108.50 12.25L98 12.25L98 10.50L106.75 10.50L106.75 8.75L99.75 8.75L99.75 7L98 7L98 5.25L99.75 5.25L99.75 3.50L108.50 3.50L108.50 5.25L101.50 5.25L101.50 7L108.50 7L108.50 8.75L110.25 8.75L110.25 10.50L108.50 10.50L108.50 12.25ZM115.50 12.25L112 12.25L112 0L115.50 0L115.50 3.50L122.50 3.50L122.50 5.25L124.25 5.25L124.25 12.25L120.75 12.25L120.75 5.25L115.50 5.25L115.50 12.25ZM138.25 12.25L127.75 12.25L127.75 10.50L126 10.50L126 8.75L127.75 8.75L127.75 7L134.75 7L134.75 5.25L127.75 5.25L127.75 3.50L136.50 3.50L136.50 5.25L138.25 5.25L138.25 12.25ZM129.50 8.75L129.50 10.50L134.75 10.50L134.75 8.75L129.50 8.75ZM145.25 3.50L145.25 5.25L147 5.25L147 7L145.25 7L145.25 12.25L141.75 12.25L141.75 3.50L145.25 3.50ZM147 3.50L152.25 3.50L152.25 5.25L147 5.25L147 3.50ZM157.50 12.25L154 12.25L154 0L157.50 0L157.50 7L161 7L161 5.25L162.75 5.25L162.75 3.50L166.25 3.50L166.25 5.25L164.50 5.25L164.50 7L162.75 7L162.75 8.75L164.50 8.75L164.50 10.50L166.25 10.50L166.25 12.25L162.75 12.25L162.75 10.50L161 10.50L161 8.75L157.50 8.75L157.50 12.25ZM178.50 12.25L168 12.25L168 10.50L176.75 10.50L176.75 8.75L169.75 8.75L169.75 7L168 7L168 5.25L169.75 5.25L169.75 3.50L178.50 3.50L178.50 5.25L171.50 5.25L171.50 7L178.50 7L178.50 8.75L180.25 8.75L180.25 10.50L178.50 10.50L178.50 12.25Z"></path></g><!----><g data-v-423bf9ae="" id="aae597cb-d219-4cae-af20-5996f5a10cb1" transform="matrix(1.1667229267452237,0,0,1.1667229267452237,0.6732664228567629,-17.548171336604234)" stroke="none" fill="white"><path d="M16.104 19.645c5.109 2.646 8.487 6.027 8.487 21.396 0 0-1.204 3.617 6.933 5.726 0 0-.917 1.507-7.548 3.617 0 0 .271 9.91-6.666 17.754.986-.15 2.074-.24 3.3-.24 5.391 0 8.209 1.665 10.696 3.133 2.276 1.344 4.242 2.505 8.397 2.505 4.154 0 6.121-1.161 8.396-2.504 2.487-1.469 5.304-3.134 10.695-3.134s8.209 1.665 10.696 3.133c2.276 1.344 4.242 2.505 8.396 2.505 3.631 0 5.589-.886 7.544-2.005-6.155-4.27-14.361-12.312-20.507-27.023-15.67-37.52-59.066-30.17-48.819-24.863z"></path><path d="M2.26 83.241c5.391 0 8.209-1.665 10.696-3.134 2.276-1.343 4.242-2.505 8.396-2.505 4.155 0 6.121 1.162 8.397 2.506 2.487 1.468 5.305 3.133 10.696 3.133s8.209-1.665 10.695-3.134c2.274-1.343 4.241-2.505 8.396-2.505s6.12 1.162 8.396 2.506c2.487 1.468 5.306 3.133 10.696 3.133 5.392 0 8.21-1.664 10.697-3.133 2.276-1.344 4.241-2.506 8.398-2.506a2.26 2.26 0 1 0 0-4.521c-5.393 0-8.211 1.665-10.698 3.133-2.276 1.345-4.241 2.506-8.397 2.506-4.155 0-6.121-1.161-8.397-2.506-2.487-1.468-5.305-3.133-10.695-3.133-5.392 0-8.209 1.665-10.695 3.133-2.275 1.345-4.242 2.506-8.396 2.506-4.155 0-6.121-1.161-8.397-2.506-2.487-1.468-5.305-3.133-10.696-3.133-5.39 0-8.208 1.665-10.695 3.133-2.276 1.345-4.242 2.506-8.397 2.506a2.26 2.26 0 0 0 0 4.521z"></path><path d="M97.726 82.265c-5.393 0-8.211 1.665-10.698 3.133-2.276 1.344-4.242 2.504-8.397 2.504-4.156 0-6.121-1.16-8.397-2.504-2.487-1.468-5.305-3.133-10.695-3.133-5.392 0-8.21 1.665-10.696 3.134-2.275 1.343-4.241 2.503-8.396 2.503-4.155 0-6.121-1.16-8.396-2.504-2.487-1.468-5.306-3.133-10.697-3.133-5.389 0-8.208 1.665-10.695 3.133-2.276 1.344-4.241 2.504-8.397 2.504a2.26 2.26 0 1 0-.003 4.521c5.391 0 8.209-1.665 10.697-3.133 2.276-1.345 4.241-2.506 8.396-2.506 4.156 0 6.122 1.161 8.397 2.507 2.487 1.467 5.305 3.132 10.696 3.132s8.209-1.665 10.696-3.133c2.274-1.345 4.24-2.506 8.396-2.506 4.155 0 6.12 1.161 8.396 2.507 2.488 1.467 5.306 3.132 10.697 3.132s8.209-1.664 10.696-3.132c2.276-1.346 4.242-2.507 8.399-2.507a2.26 2.26 0 0 0 .001-4.519z"></path></g><!----></svg>