<svg data-v-423bf9ae="" xmlns="http://www.w3.org/2000/svg" viewBox="0 0 882.8571428571429 60" class="font"><!----><!----><!----><g data-v-423bf9ae="" id="b7399e04-d3b7-4ca5-823b-3254e31480d2" fill="black" transform="matrix(4.8979591836734695,0,0,4.8979591836734695,-0.000013078962069812405,0)"><path d="M10.50 12.25L0 12.25L0 10.50L8.75 10.50L8.75 8.75L1.75 8.75L1.75 7L0 7L0 5.25L1.75 5.25L1.75 3.50L10.50 3.50L10.50 5.25L3.50 5.25L3.50 7L10.50 7L10.50 8.75L12.25 8.75L12.25 10.50L10.50 10.50L10.50 12.25ZM24.50 12.25L15.75 12.25L15.75 10.50L14 10.50L14 5.25L15.75 5.25L15.75 3.50L24.50 3.50L24.50 5.25L26.25 5.25L26.25 10.50L24.50 10.50L24.50 12.25ZM17.50 5.25L17.50 10.50L22.75 10.50L22.75 5.25L17.50 5.25ZM40.25 12.25L29.75 12.25L29.75 10.50L33.25 10.50L33.25 1.75L31.50 1.75L31.50 0L36.75 0L36.75 10.50L40.25 10.50L40.25 12.25ZM54.25 12.25L43.75 12.25L43.75 10.50L42 10.50L42 8.75L43.75 8.75L43.75 7L50.75 7L50.75 5.25L43.75 5.25L43.75 3.50L52.50 3.50L52.50 5.25L54.25 5.25L54.25 12.25ZM45.50 8.75L45.50 10.50L50.75 10.50L50.75 8.75L45.50 8.75ZM59.50 12.25L56 12.25L56 3.50L66.50 3.50L66.50 5.25L68.25 5.25L68.25 12.25L64.75 12.25L64.75 5.25L59.50 5.25L59.50 12.25ZM82.25 12.25L71.75 12.25L71.75 10.50L70 10.50L70 8.75L71.75 8.75L71.75 7L78.75 7L78.75 5.25L71.75 5.25L71.75 3.50L80.50 3.50L80.50 5.25L82.25 5.25L82.25 12.25ZM73.50 8.75L73.50 10.50L78.75 10.50L78.75 8.75L73.50 8.75ZM108.50 12.25L98 12.25L98 10.50L106.75 10.50L106.75 8.75L99.75 8.75L99.75 7L98 7L98 5.25L99.75 5.25L99.75 3.50L108.50 3.50L108.50 5.25L101.50 5.25L101.50 7L108.50 7L108.50 8.75L110.25 8.75L110.25 10.50L108.50 10.50L108.50 12.25ZM115.50 12.25L112 12.25L112 0L115.50 0L115.50 3.50L122.50 3.50L122.50 5.25L124.25 5.25L124.25 12.25L120.75 12.25L120.75 5.25L115.50 5.25L115.50 12.25ZM138.25 12.25L127.75 12.25L127.75 10.50L126 10.50L126 8.75L127.75 8.75L127.75 7L134.75 7L134.75 5.25L127.75 5.25L127.75 3.50L136.50 3.50L136.50 5.25L138.25 5.25L138.25 12.25ZM129.50 8.75L129.50 10.50L134.75 10.50L134.75 8.75L129.50 8.75ZM145.25 3.50L145.25 5.25L147 5.25L147 7L145.25 7L145.25 12.25L141.75 12.25L141.75 3.50L145.25 3.50ZM147 3.50L152.25 3.50L152.25 5.25L147 5.25L147 3.50ZM157.50 12.25L154 12.25L154 0L157.50 0L157.50 7L161 7L161 5.25L162.75 5.25L162.75 3.50L166.25 3.50L166.25 5.25L164.50 5.25L164.50 7L162.75 7L162.75 8.75L164.50 8.75L164.50 10.50L166.25 10.50L166.25 12.25L162.75 12.25L162.75 10.50L161 10.50L161 8.75L157.50 8.75L157.50 12.25ZM178.50 12.25L168 12.25L168 10.50L176.75 10.50L176.75 8.75L169.75 8.75L169.75 7L168 7L168 5.25L169.75 5.25L169.75 3.50L178.50 3.50L178.50 5.25L171.50 5.25L171.50 7L178.50 7L178.50 8.75L180.25 8.75L180.25 10.50L178.50 10.50L178.50 12.25Z"></path></g><!----><!----></svg>