<?xml version="1.0" standalone="no"?>
<!DOCTYPE svg PUBLIC "-//W3C//DTD SVG 20010904//EN"
 "http://www.w3.org/TR/2001/REC-SVG-20010904/DTD/svg10.dtd">
<svg version="1.0" xmlns="http://www.w3.org/2000/svg"
 width="1054.000000pt" height="1054.000000pt" viewBox="0 0 1054.000000 1054.000000"
 preserveAspectRatio="xMidYMid meet">
<metadata>
Created by potrace 1.14, written by Peter Selinger 2001-2017
</metadata>
<g transform="translate(0.000000,1054.000000) scale(0.100000,-0.100000)"
fill="#000000" stroke="none">
<path d="M2270 9690 c-263 -32 -460 -97 -528 -174 -39 -45 -46 -68 -32 -110
15 -47 49 -75 190 -157 184 -106 235 -143 336 -243 106 -106 158 -180 225
-320 146 -306 214 -708 228 -1346 6 -292 7 -307 29 -352 70 -142 260 -270 527
-354 66 -21 122 -39 124 -41 11 -8 -49 -57 -123 -101 -122 -73 -343 -168 -528
-228 l-88 -28 0 -66 c0 -81 -24 -286 -45 -400 -61 -321 -195 -680 -347 -928
-61 -100 -169 -250 -224 -311 -42 -47 -45 -53 -24 -47 47 15 448 19 559 6 287
-33 476 -102 822 -302 340 -196 522 -246 869 -235 194 6 310 25 447 76 102 37
128 51 332 168 202 116 261 146 373 189 202 78 415 114 674 115 415 0 648 -66
1044 -293 383 -221 544 -266 905 -255 253 8 400 44 603 146 45 23 82 43 82 45
0 2 -42 35 -92 73 -660 496 -1167 1106 -1620 1948 -89 165 -183 364 -303 640
-113 258 -240 510 -359 708 -722 1202 -1906 1978 -3298 2163 -143 19 -640 28
-758 14z"/>
<path d="M2095 3975 c-263 -34 -468 -111 -780 -292 -303 -177 -448 -225 -731
-243 -141 -9 -160 -12 -206 -37 -164 -89 -145 -326 32 -401 48 -20 274 -11
438 18 226 39 413 113 685 271 345 200 459 236 773 246 371 11 520 -26 840
-208 211 -120 348 -189 468 -234 378 -141 914 -141 1292 0 119 45 266 118 429
212 224 131 345 181 510 214 111 22 516 19 625 -5 161 -35 275 -84 517 -225
375 -217 610 -288 991 -298 425 -12 697 63 1127 313 303 175 429 216 716 234
157 9 203 22 253 68 82 77 88 229 13 311 -12 13 -44 34 -72 47 -42 20 -66 24
-151 24 -108 0 -282 -20 -391 -45 -193 -44 -329 -102 -591 -251 -228 -131
-339 -180 -493 -221 -100 -26 -114 -27 -349 -28 -206 0 -258 3 -325 19 -174
41 -298 94 -520 224 -242 140 -380 201 -568 248 -268 68 -638 72 -926 10 -185
-40 -337 -106 -612 -264 -209 -120 -327 -172 -475 -209 -105 -27 -118 -28
-359 -27 -248 0 -251 0 -365 31 -151 41 -246 84 -470 211 -344 196 -491 250
-785 288 -134 17 -404 16 -540 -1z"/>
<path d="M2073 3064 c-182 -26 -381 -87 -530 -162 -33 -17 -136 -75 -229 -128
-93 -54 -209 -115 -258 -136 -158 -69 -347 -108 -526 -108 -139 -1 -223 -55
-255 -164 -34 -117 20 -221 143 -273 62 -26 316 -7 540 41 155 34 345 118 614
273 315 181 475 226 803 226 230 0 382 -26 543 -92 40 -16 161 -80 270 -142
369 -210 527 -268 840 -304 161 -19 303 -19 464 0 313 36 471 94 839 303 204
116 250 139 353 173 163 54 392 77 596 59 273 -23 390 -62 676 -228 283 -164
502 -255 694 -286 297 -49 516 -47 788 5 206 40 384 113 656 271 312 181 449
225 756 243 131 8 169 21 223 73 76 74 86 188 23 279 -52 76 -96 93 -236 93
-129 0 -294 -19 -415 -49 -186 -46 -331 -110 -597 -264 -301 -175 -457 -224
-749 -234 -355 -12 -540 38 -893 241 -206 119 -265 149 -378 192 -204 79 -409
114 -674 114 -423 0 -642 -63 -1075 -310 -193 -111 -280 -152 -395 -185 -130
-38 -260 -55 -421 -55 -162 0 -257 11 -392 46 -136 36 -216 72 -433 196 -338
193 -500 254 -783 294 -127 17 -459 16 -582 -2z"/>
</g>
</svg>
